{
	"asset": {
		"generator": "COLLADA2GLTF",
		"version": "2.0"
	},
	"scenes": [
		{
			"nodes": [0]
		}
	],
	"scene": 0,
	"nodes": [
		{
			"children": [1],
			"matrix": [
				1.0, 0.0, 0.0, 0.0, 0.0, 0.0, -1.0, 0.0, 0.0, 1.0, 0.0, 0.0, 0.0, 0.0,
				0.0, 1.0
			],
			"name": "Z_UP"
		},
		{
			"mesh": 0
		}
	],
	"meshes": [
		{
			"primitives": [
				{
					"attributes": {
						"NORMAL": 1,
						"POSITION": 2
					},
					"indices": 0,
					"mode": 4,
					"material": 0
				},
				{
					"attributes": {
						"NORMAL": 4,
						"POSITION": 5
					},
					"indices": 3,
					"mode": 4,
					"material": 1
				}
			],
			"name": "geometry0"
		}
	],
	"accessors": [
		{
			"bufferView": 0,
			"byteOffset": 0,
			"componentType": 5123,
			"count": 144,
			"max": [85],
			"min": [0],
			"type": "SCALAR"
		},
		{
			"bufferView": 1,
			"byteOffset": 0,
			"componentType": 5126,
			"count": 86,
			"max": [0.9720540046691896, 0.9721137881278992, 0.0],
			"min": [-0.9720540046691896, -0.9724509119987488, -1.0],
			"type": "VEC3"
		},
		{
			"bufferView": 1,
			"byteOffset": 1032,
			"componentType": 5126,
			"count": 86,
			"max": [8.131999969482422, 14.824000358581545, 9.097000122070313],
			"min": [-4.539999961853027, 0.0, 0.0],
			"type": "VEC3"
		},
		{
			"bufferView": 0,
			"byteOffset": 288,
			"componentType": 5123,
			"count": 48,
			"max": [26],
			"min": [0],
			"type": "SCALAR"
		},
		{
			"bufferView": 1,
			"byteOffset": 2064,
			"componentType": 5126,
			"count": 27,
			"max": [0.3908041119575501, 0.3126086890697479, 1.0],
			"min": [-0.3914853930473328, -0.2967264950275421, 0.9152619242668152],
			"type": "VEC3"
		},
		{
			"bufferView": 1,
			"byteOffset": 2388,
			"componentType": 5126,
			"count": 27,
			"max": [8.131999969482422, 14.824000358581545, 10.717000007629397],
			"min": [-4.539999961853027, 0.0, 8.657999992370606],
			"type": "VEC3"
		}
	],
	"materials": [
		{
			"pbrMetallicRoughness": {
				"baseColorFactor": [
					0.800000011920929, 0.800000011920929, 0.800000011920929, 1.0
				],
				"metallicFactor": 0.0
			},
			"emissiveFactor": [0.0, 0.0, 0.0],
			"name": "default_ai_0.2_sh_0.2_tr_0.0_dc_r_0.8_g_0.8_b_0.8_sc_r_1.0_g_1.0_b_1.0_ec_r_0.0_g_0.0_b_0_eff"
		},
		{
			"pbrMetallicRoughness": {
				"baseColorFactor": [1.0, 1, 1, 1.0],
				"metallicFactor": 0.0
			},
			"emissiveFactor": [0.0, 0.0, 0.0],
			"name": "default_ai_0.2_sh_0.2_tr_0.0_dc_r_1.0_g_0.2_b_0.2_sc_r_1.0_g_1.0_b_1.0_ec_r_0.0_g_0.0_b_0_eff"
		}
	],
	"bufferViews": [
		{
			"buffer": 0,
			"byteOffset": 2712,
			"byteLength": 384,
			"target": 34963
		},
		{
			"buffer": 0,
			"byteOffset": 0,
			"byteLength": 2712,
			"byteStride": 12,
			"target": 34962
		}
	],
	"buffers": [
		{
			"byteLength": 3096,
			"uri": "data:application/octet-stream;base64,"
		}
	]
}
